<svg xmlns="http://www.w3.org/2000/svg" width="760" height="660" viewBox="0 0 760 660"><rect width="760" height="660" fill="#FBFAF8"/>
<rect x="80" y="70" width="420" height="300" fill="#F7F3EC"/>
<rect x="500" y="70" width="180" height="300" fill="#ECEFF2"/>
<rect x="80" y="370" width="150" height="210" fill="#F7F3EC"/>
<rect x="230" y="370" width="270" height="210" fill="#F7F3EC"/>
<rect x="500" y="370" width="180" height="210" fill="#E6EDF1"/>
<rect x="110" y="90" width="170" height="26" rx="3" fill="#ECE6DC" stroke="#3C4248" stroke-width="2"/>
<line x1="134.28571428571428" y1="90" x2="134.28571428571428" y2="116" stroke="#3C4248" stroke-width="1"/>
<line x1="158.57142857142856" y1="90" x2="158.57142857142856" y2="116" stroke="#3C4248" stroke-width="1"/>
<line x1="182.85714285714286" y1="90" x2="182.85714285714286" y2="116" stroke="#3C4248" stroke-width="1"/>
<line x1="207.14285714285714" y1="90" x2="207.14285714285714" y2="116" stroke="#3C4248" stroke-width="1"/>
<line x1="231.42857142857144" y1="90" x2="231.42857142857144" y2="116" stroke="#3C4248" stroke-width="1"/>
<line x1="255.71428571428572" y1="90" x2="255.71428571428572" y2="116" stroke="#3C4248" stroke-width="1"/>
<rect x="110" y="150" width="150" height="120" rx="8" fill="#ECE6DC" stroke="#3C4248" stroke-width="2"/>
<rect x="116" y="156" width="138" height="33.6" rx="5" fill="#fff" stroke="#3C4248" stroke-width="2"/>
<line x1="185.0" y1="156" x2="185.0" y2="189.6" stroke="#3C4248" stroke-width="2"/>
<rect x="300" y="250" width="150" height="70" rx="14" fill="#E3C9A4" opacity="0.7"/>
<rect x="305" y="255" width="140" height="58" rx="10" fill="#ECE6DC" stroke="#3C4248" stroke-width="2"/>
<rect x="305" y="255" width="140" height="18.56" rx="8" fill="#ECE6DC" stroke="#3C4248" stroke-width="2"/>
<rect x="355" y="150" width="70" height="18" rx="3" fill="#ECE6DC" stroke="#3C4248" stroke-width="2"/>
<circle cx="468" cy="95" r="9" fill="#8AAE83" stroke="#6f8f68" stroke-width="2"/>
<rect x="250" y="524" width="220" height="38" rx="3" fill="#fff" stroke="#3C4248" stroke-width="2"/>
<circle cx="272.8" cy="543.0" r="10.64" fill="#ECE6DC" stroke="#3C4248" stroke-width="2"/>
<circle cx="417.2" cy="537.6" r="4" fill="none" stroke="#3C4248" stroke-width="2"/>
<circle cx="417.2" cy="552.8000000000001" r="4" fill="none" stroke="#3C4248" stroke-width="2"/>
<circle cx="438.09999999999997" cy="537.6" r="4" fill="none" stroke="#3C4248" stroke-width="2"/>
<circle cx="438.09999999999997" cy="552.8000000000001" r="4" fill="none" stroke="#3C4248" stroke-width="2"/>
<rect x="250" y="470" width="34" height="50" rx="3" fill="#ECE6DC" stroke="#3C4248" stroke-width="2"/>
<circle cx="370" cy="430" r="24" fill="#ECE6DC" stroke="#3C4248" stroke-width="2"/>
<rect x="328" y="422" width="16" height="16" rx="4" fill="#ECE6DC" stroke="#3C4248" stroke-width="2"/>
<rect x="396" y="422" width="16" height="16" rx="4" fill="#ECE6DC" stroke="#3C4248" stroke-width="2"/>
<rect x="362" y="388" width="16" height="16" rx="4" fill="#ECE6DC" stroke="#3C4248" stroke-width="2"/>
<rect x="362" y="456" width="16" height="16" rx="4" fill="#ECE6DC" stroke="#3C4248" stroke-width="2"/>
<rect x="516" y="386" width="150" height="40" rx="12" fill="#fff" stroke="#3C4248" stroke-width="2"/>
<circle cx="624.0" cy="406.0" r="6.4" fill="none" stroke="#3C4248" stroke-width="2"/>
<rect x="620" y="470" width="24" height="14" rx="4" fill="#fff" stroke="#3C4248" stroke-width="2"/>
<rect x="623" y="482" width="18" height="18" rx="8" fill="#fff" stroke="#3C4248" stroke-width="2"/>
<rect x="516" y="470" width="26" height="18" rx="6" fill="#fff" stroke="#3C4248" stroke-width="2"/>
<circle cx="529" cy="479" r="5" fill="none" stroke="#3C4248" stroke-width="2"/>
<rect x="96" y="386" width="30" height="90" rx="3" fill="#ECE6DC" stroke="#3C4248" stroke-width="2"/>
<line x1="111.0" y1="386" x2="111.0" y2="476" stroke="#3C4248" stroke-width="1"/>
<rect x="600" y="90" width="60" height="40" rx="4" fill="#ECE6DC" stroke="#3C4248" stroke-width="2"/>
<circle cx="540" cy="320" r="9" fill="#8AAE83" stroke="#6f8f68" stroke-width="2"/>
<rect x="80" y="62.0" width="100" height="16" fill="#3C4248"/>
<rect x="360" y="62.0" width="320" height="16" fill="#3C4248"/>
<rect x="80" y="572.0" width="220" height="16" fill="#3C4248"/>
<rect x="420" y="572.0" width="260" height="16" fill="#3C4248"/>
<rect x="72.0" y="70" width="16" height="80" fill="#3C4248"/>
<rect x="72.0" y="280" width="16" height="190" fill="#3C4248"/>
<rect x="72.0" y="516" width="16" height="64" fill="#3C4248"/>
<rect x="672.0" y="70" width="16" height="50" fill="#3C4248"/>
<rect x="672.0" y="300" width="16" height="280" fill="#3C4248"/>
<rect x="492.0" y="70" width="16" height="80" fill="#3C4248"/>
<rect x="492.0" y="210" width="16" height="220" fill="#3C4248"/>
<rect x="492.0" y="476" width="16" height="104" fill="#3C4248"/>
<rect x="80" y="362.0" width="220" height="16" fill="#3C4248"/>
<rect x="346" y="362.0" width="334" height="16" fill="#3C4248"/>
<rect x="222.0" y="370" width="16" height="60" fill="#3C4248"/>
<rect x="222.0" y="476" width="16" height="104" fill="#3C4248"/>
<rect x="180" y="62.0" width="180" height="16" fill="#fff"/>
<line x1="180" y1="70" x2="360" y2="70" stroke="#3C4248" stroke-width="2"/>
<rect x="180" y="62.0" width="180" height="16" fill="none" stroke="#3C4248" stroke-width="1.5"/>
<rect x="300" y="572.0" width="120" height="16" fill="#fff"/>
<line x1="300" y1="580" x2="420" y2="580" stroke="#3C4248" stroke-width="2"/>
<rect x="300" y="572.0" width="120" height="16" fill="none" stroke="#3C4248" stroke-width="1.5"/>
<rect x="72.0" y="150" width="16" height="130" fill="#fff"/>
<line x1="80" y1="150" x2="80" y2="280" stroke="#3C4248" stroke-width="2"/>
<rect x="72.0" y="150" width="16" height="130" fill="none" stroke="#3C4248" stroke-width="1.5"/>
<rect x="672.0" y="120" width="16" height="180" fill="#fff"/>
<line x1="680" y1="120" x2="680" y2="300" stroke="#3C4248" stroke-width="2"/>
<rect x="672.0" y="120" width="16" height="180" fill="none" stroke="#3C4248" stroke-width="1.5"/>
<path d="M 80 516 L 80.0 472.0 A 44 44 0 0 1 124.0 516.0 Z" fill="none" stroke="#3C4248" stroke-width="1.5"/>
<path d="M 230 476 L 190.0 476.0 A 40 40 0 0 1 230.0 436.0 Z" fill="none" stroke="#3C4248" stroke-width="1.5"/>
<path d="M 346 370 L 306.0 370.0 A 40 40 0 0 0 346.0 410.0 Z" fill="none" stroke="#3C4248" stroke-width="1.5"/>
<path d="M 500 476 L 540.0 476.0 A 40 40 0 0 0 500.0 436.0 Z" fill="none" stroke="#3C4248" stroke-width="1.5"/>
<text x="290" y="320" font-family="Manrope, Arial, sans-serif" font-size="17" font-weight="700" fill="#3C4248" text-anchor="middle">Жилая комната</text>
<text x="290" y="340" font-family="Manrope, Arial, sans-serif" font-size="14" fill="#7C8794" text-anchor="middle">17,97 м²</text>
<text x="590" y="230" font-family="Manrope, Arial, sans-serif" font-size="17" font-weight="700" fill="#3C4248" text-anchor="middle">Лоджия</text>
<text x="590" y="250" font-family="Manrope, Arial, sans-serif" font-size="14" fill="#7C8794" text-anchor="middle">7,68 м²</text>
<text x="155" y="350" font-family="Manrope, Arial, sans-serif" font-size="17" font-weight="700" fill="#3C4248" text-anchor="middle">Прихожая</text>
<text x="155" y="370" font-family="Manrope, Arial, sans-serif" font-size="14" fill="#7C8794" text-anchor="middle">3,27 м²</text>
<text x="360" y="500" font-family="Manrope, Arial, sans-serif" font-size="17" font-weight="700" fill="#3C4248" text-anchor="middle">Кухня</text>
<text x="360" y="520" font-family="Manrope, Arial, sans-serif" font-size="14" fill="#7C8794" text-anchor="middle">9,47 м²</text>
<text x="590" y="440" font-family="Manrope, Arial, sans-serif" font-size="17" font-weight="700" fill="#3C4248" text-anchor="middle">Санузел</text>
<text x="590" y="460" font-family="Manrope, Arial, sans-serif" font-size="14" fill="#7C8794" text-anchor="middle">3,69 м²</text>
<circle cx="540" cy="130" r="34" fill="#fff" stroke="#3C4248" stroke-width="2"/>
<text x="540" y="127" font-family="Manrope, Arial, sans-serif" font-size="17" font-weight="800" fill="#3C4248" text-anchor="middle">1к</text>
<line x1="520" y1="134" x2="560" y2="134" stroke="#3C4248" stroke-width="1.5"/>
<text x="540" y="150" font-family="Manrope, Arial, sans-serif" font-size="13" font-weight="700" fill="#3C4248" text-anchor="middle">44,33</text>
</svg>